<?xml version="1.0" encoding="UTF-8"?>
<svg xmlns="http://www.w3.org/2000/svg" viewBox="0 0 200 200" width="200" height="200" role="img" aria-label="Cow logo">
  <!-- Simple, modern cow head logo -->
  <defs>
    <linearGradient id="g1" x1="0" x2="0" y1="0" y2="1">
      <stop offset="0%" stop-color="#FFFFFF" />
      <stop offset="100%" stop-color="#F1F6F9" />
    </linearGradient>
  </defs>

  <!-- Head -->
  <ellipse cx="100" cy="100" rx="62" ry="56" fill="url(#g1)" stroke="#222" stroke-width="4"/>

  <!-- Ears -->
  <path d="M40 80 C25 60, 35 40, 60 62" fill="#FFF" stroke="#222" stroke-width="3"/>
  <path d="M160 80 C175 60, 165 40, 140 62" fill="#FFF" stroke="#222" stroke-width="3"/>

  <!-- Horns -->
  <path d="M70 42 C64 18, 86 18, 80 42" fill="#F6C36B" stroke="#8A5F22" stroke-width="2"/>
  <path d="M130 42 C136 18, 114 18, 120 42" fill="#F6C36B" stroke="#8A5F22" stroke-width="2"/>

  <!-- Spots -->
  <path d="M85 82c-10 -8 -28 -6 -36 6c-8 12 6 24 18 18c12 -6 20 -22 18 -24z" fill="#222"/>
  <path d="M136 96c8 -6 22 -6 28 6c6 12 -6 22 -18 18c-12 -4 -18 -18 -10 -30z" fill="#222"/>

  <!-- Eyes -->
  <circle cx="82" cy="94" r="6" fill="#222"/>
  <circle cx="118" cy="94" r="6" fill="#222"/>

  <!-- Muzzle -->
  <ellipse cx="100" cy="130" rx="34" ry="20" fill="#FFF" stroke="#222" stroke-width="3"/>
  <circle cx="88" cy="128" r="4" fill="#222"/>
  <circle cx="112" cy="128" r="4" fill="#222"/>

  <!-- Smile / mouth -->
  <path d="M88 138 Q100 146 112 138" stroke="#8A5F22" stroke-width="3" fill="none" stroke-linecap="round"/>

  <!-- Subtle drop shadow -->
  <ellipse cx="100" cy="170" rx="44" ry="8" fill="#000" opacity="0.06"/>
</svg>